<svg width="40" height="40" viewBox="0 0 40 40" fill="none" xmlns="http://www.w3.org/2000/svg">
<g filter="url(#filter0_i_266_277)">
<circle cx="20" cy="20" r="20" fill="#A1E7E3"/>
<path fill-rule="evenodd" clip-rule="evenodd" d="M8 18C8 12.4772 12.4772 8 18 8H23C26.1931 8 29.0366 9.49656 30.8675 11.8265H13.8674V14.8878H32.5062C32.694 15.4619 32.8313 16.0589 32.9128 16.6735H13.8674V19.7347H33V21.5204H13.8674V24.5816H32.8756C32.7778 25.1974 32.6237 25.7944 32.4189 26.3673H13.8674V29.4286H30.6602C28.8258 31.6121 26.075 33 23 33H18C12.4772 33 8 28.5228 8 23V18Z" fill="white"/>
</g>
<defs>
<filter id="filter0_i_266_277" x="0" y="0" width="40" height="44" filterUnits="userSpaceOnUse" color-interpolation-filters="sRGB">
<feFlood flood-opacity="0" result="BackgroundImageFix"/>
<feBlend mode="normal" in="SourceGraphic" in2="BackgroundImageFix" result="shape"/>
<feColorMatrix in="SourceAlpha" type="matrix" values="0 0 0 0 0 0 0 0 0 0 0 0 0 0 0 0 0 0 127 0" result="hardAlpha"/>
<feOffset dy="4"/>
<feGaussianBlur stdDeviation="2"/>
<feComposite in2="hardAlpha" operator="arithmetic" k2="-1" k3="1"/>
<feColorMatrix type="matrix" values="0 0 0 0 0 0 0 0 0 0 0 0 0 0 0 0 0 0 0.25 0"/>
<feBlend mode="normal" in2="shape" result="effect1_innerShadow_266_277"/>
</filter>
</defs>
</svg>
